<svg width="62" height="62" viewBox="0 0 62 62" fill="none" xmlns="http://www.w3.org/2000/svg">
<path fill-rule="evenodd" clip-rule="evenodd" d="M31 62C48.1208 62 62 48.1208 62 31C62 13.8792 48.1208 0 31 0C13.8792 0 0 13.8792 0 31C0 48.1208 13.8792 62 31 62ZM14.4393 32.0607L23.9853 41.6066C24.5711 42.1924 25.5208 42.1924 26.1066 41.6066C26.6924 41.0208 26.6924 40.0711 26.1066 39.4853L19.1213 32.5H46.5C47.3284 32.5 48 31.8284 48 31C48 30.1716 47.3284 29.5 46.5 29.5H19.1213L26.1066 22.5147C26.6924 21.9289 26.6924 20.9792 26.1066 20.3934C25.5208 19.8076 24.5711 19.8076 23.9853 20.3934L14.4393 29.9393C13.8536 30.5251 13.8536 31.4749 14.4393 32.0607Z" fill="#D9D9D9"/>
</svg>
