<svg width="62" height="62" viewBox="0 0 62 62" fill="none" xmlns="http://www.w3.org/2000/svg">
<path fill-rule="evenodd" clip-rule="evenodd" d="M31 -2.71011e-06C13.8792 -4.20686e-06 4.20686e-06 13.8792 2.71011e-06 31C1.21336e-06 48.1208 13.8792 62 31 62C48.1208 62 62 48.1208 62 31C62 13.8792 48.1208 -1.21336e-06 31 -2.71011e-06ZM47.5607 29.9393L38.0147 20.3934C37.4289 19.8076 36.4792 19.8076 35.8934 20.3934C35.3076 20.9792 35.3076 21.9289 35.8934 22.5147L42.8787 29.5L15.5 29.5C14.6716 29.5 14 30.1716 14 31C14 31.8284 14.6716 32.5 15.5 32.5L42.8787 32.5L35.8934 39.4853C35.3076 40.0711 35.3076 41.0208 35.8934 41.6066C36.4792 42.1924 37.4289 42.1924 38.0147 41.6066L47.5607 32.0607C48.1464 31.4749 48.1464 30.5251 47.5607 29.9393Z" fill="#FFA113"/>
</svg>
