<svg width="45" height="30" viewBox="0 0 45 30" fill="none" xmlns="http://www.w3.org/2000/svg">
<path d="M19.4572 26.4561C19.4572 28.7569 16.7315 30.0138 14.9361 28.5408L1.32572 17.3744C-0.442103 15.9241 -0.442103 13.2509 1.32572 11.8006L14.9361 0.634174C16.7315 -0.83877 19.4572 0.418117 19.4572 2.71893C19.4572 3.52431 19.094 4.28809 18.4655 4.80369L6.5397 14.5875L18.4655 24.3713C19.094 24.8869 19.4572 25.6507 19.4572 26.4561Z" fill="#7EA6EF"/>
<path d="M41.4675 18.12C43.4184 18.12 45 16.5384 45 14.5875C45 12.6365 43.4184 11.055 41.4675 11.055L8.69291 11.055C1.51674 14.5875 8.69286 11.055 1.51669 14.5875L8.69291 18.12L41.4675 18.12Z" fill="#7EA6EF"/>
</svg>
